<svg xmlns="http://www.w3.org/2000/svg" viewBox="0 0 900 200" role="img" aria-label="TakeawAI (reversed)">
  <defs>
    <linearGradient id="rbody" x1="0" y1="0" x2="1" y2="1">
      <stop offset="0%" stop-color="#FFFFFF"/>
      <stop offset="100%" stop-color="#E6F2F5"/>
    </linearGradient>
  </defs>
  <g transform="translate(0,0)">
    <path d="M70 56 q15 -28 30 0" fill="none" stroke="#3DE0EC" stroke-width="6" stroke-linecap="round"/>
    <path d="M115 56 q15 -28 30 0" fill="none" stroke="#3DE0EC" stroke-width="6" stroke-linecap="round"/>
    <path d="M40 60 L52 50 L52 178 L40 188 Z" fill="#3DE0EC"/>
    <path d="M52 50 L168 50 L172 60 L52 60 Z" fill="#FFFFFF" opacity="0.7"/>
    <path d="M52 60 L172 60 L168 188 L40 188 Z" fill="url(#rbody)"/>
    <g stroke="#16315A" stroke-width="3" fill="none" stroke-linecap="round" stroke-linejoin="round">
      <path d="M106 88 a26 26 0 0 0 -12 50 v8 h24 v-8 a26 26 0 0 0 -12 -50 Z"/>
      <line x1="96" y1="152" x2="116" y2="152"/>
      <line x1="98" y1="158" x2="114" y2="158"/>
      <line x1="100" y1="164" x2="112" y2="164"/>
      <line x1="106" y1="146" x2="106" y2="118"/>
      <line x1="106" y1="132" x2="94" y2="120"/>
      <line x1="106" y1="132" x2="118" y2="120"/>
    </g>
  </g>
  <g font-family="Nunito, 'Helvetica Neue', Arial, sans-serif" font-weight="900">
    <text x="220" y="138" font-size="100" fill="#FFFFFF">Takeaw<tspan fill="#3DE0EC">[AI]</tspan></text>
  </g>
</svg>
